<?xml version="1.0" encoding="UTF-8"?>
<svg width="20px" height="20px" viewBox="0 0 20 20" version="1.1" xmlns="http://www.w3.org/2000/svg" xmlns:xlink="http://www.w3.org/1999/xlink">
    <title>切片</title>
    <g id="后台规范" stroke="none" stroke-width="1" fill="none" fill-rule="evenodd">
        <g id="首页" transform="translate(-30.000000, -292.000000)">
            <g id="左侧栏/下拉" transform="translate(0.000000, 282.000000)">
                <g id="icon/后台/20/渠道管理" transform="translate(30.000000, 10.000000)">
                    <rect id="矩形" x="0" y="0" width="20" height="20"></rect>
                    <path d="M9.99946874,11.344274 L12.6178969,12.8548188 C13.042364,12.3688954 13.6519799,12.0491195 14.3367892,12.0052181 C15.0975576,12.0095086 15.7645851,12.2796506 16.2424457,12.7319857 C16.7173768,13.1815479 17,13.807933 17,14.5 C17,15.1903559 16.720178,15.8153559 16.267767,16.267767 C15.8153559,16.720178 15.1903559,17 14.5,17 C13.8096441,17 13.1846441,16.720178 12.732233,16.267767 C12.279822,15.8153559 12,15.1903559 12,14.5 C12,13.870997 12.2311845,13.2959596 12.6170967,12.8569694 L12.6170967,12.8569694 L9.99859725,11.3450407 L7.51175564,12.7832634 L7.82728887,13.5843525 C7.92000087,13.8197336 7.97784943,14.072617 7.99478273,14.3366483 C7.99052474,15.0974752 7.72037733,15.7645556 7.26801425,16.2424457 C6.81845208,16.7173768 6.19206697,17 5.5,17 C4.80964406,17 4.18464406,16.720178 3.73223305,16.267767 C3.27982203,15.8153559 3,15.1903559 3,14.5 C3,13.8096441 3.27982203,13.1846441 3.73223305,12.732233 C4.18464406,12.279822 4.80964406,12 5.5,12 C6.25055038,12 6.9240994,12.3302768 7.38200899,12.8548731 L7.38200899,12.8548731 L9.99946874,11.344274 Z M10.0003152,8.99981209 C9.20266377,9.00075204 8.4934816,8.62705427 8.0355738,8.04653098 C7.73155047,7.66109832 7.53861925,7.18393739 7.50521727,6.6633517 C7.50947526,5.90252478 7.77962267,5.23544441 8.23198575,4.75755432 C8.68154792,4.28262318 9.30793303,4 10,4 L10,4 C10.6903559,4 11.3153559,4.27982203 11.767767,4.73223305 C12.220178,5.18464406 12.5,5.80964406 12.5,6.5 C12.5,7.0589401 12.3167726,7.5751539 12.0066559,7.99144682 C11.5511761,8.60287142 10.8234216,9.00011837 10.0016246,8.99983993 L10.0016246,8.99983993 L9.99946874,11.344274 Z" id="形状结合" stroke="#FFFFFF" stroke-width="2"></path>
                </g>
            </g>
        </g>
    </g>
</svg>