<?xml version="1.0" encoding="UTF-8"?>
<svg width="20px" height="20px" viewBox="0 0 20 20" version="1.1" xmlns="http://www.w3.org/2000/svg" xmlns:xlink="http://www.w3.org/1999/xlink">
    <title>切片</title>
    <g id="后台规范" stroke="none" stroke-width="1" fill="none" fill-rule="evenodd">
        <g id="首页" transform="translate(-30.000000, -196.000000)">
            <g id="左侧栏/收起/选中" transform="translate(0.000000, 186.000000)">
                <g id="icon/后台/20/商品管理" transform="translate(30.000000, 10.000000)">
                    <rect id="矩形" x="0" y="0" width="20" height="20"></rect>
                    <g id="编组-2" transform="translate(2.500000, 2.000000)" fill="#FFFFFF">
                        <path d="M9.89713962,0 C10.1630343,0 10.4179812,0.105894833 10.6056288,0.294278341 L14.7084892,4.41322837 C14.8951797,4.60065099 15,4.8544116 15,5.11895003 L15,15 C15,15.5522847 14.5522847,16 14,16 L1,16 C0.44771525,16 0,15.5522847 0,15 L0,1 C0,0.44771525 0.44771525,0 1,0 L9.89713962,0 Z M9.482,2 L2,2 L2,14 L13,14 L13,5.532 L9.482,2 Z" id="矩形" fill-rule="nonzero"></path>
                        <path d="M8.84142136,4.34142136 L11.1585786,6.65857864 C11.2366835,6.7366835 11.2366835,6.8633165 11.1585786,6.94142136 C11.1210714,6.97892863 11.0702006,7 11.0171573,7 L8.5,7 L8.5,7 L8.5,4.48284271 C8.5,4.37238576 8.58954305,4.28284271 8.7,4.28284271 C8.7530433,4.28284271 8.80391408,4.30391408 8.84142136,4.34142136 Z" id="矩形"></path>
                    </g>
                </g>
            </g>
        </g>
    </g>
</svg>