<?xml version="1.0" encoding="UTF-8"?>
<svg width="220px" height="118px" viewBox="0 0 220 118" version="1.1" xmlns="http://www.w3.org/2000/svg" xmlns:xlink="http://www.w3.org/1999/xlink">
    <title>logo+文字</title>
    <defs>
        <polygon id="path-1" points="0 0 5.4396898 0 5.4396898 5.42135302 0 5.42135302"></polygon>
    </defs>
    <g id="后台规范" stroke="none" stroke-width="1" fill="none" fill-rule="evenodd">
        <g id="logo+文字">
            <rect id="矩形备份" x="0" y="0" width="220" height="118"></rect>
            <g transform="translate(27.000000, 20.000000)">
                <g id="导航-罗马仕logo">
                    <rect id="矩形" x="0" y="0" width="140" height="30"></rect>
                    <g id="logo-" transform="translate(5.000000, 3.000000)">
                        <path d="M27.788597,2.60223923 C21.9897822,2.60223923 17.2247735,7.3345584 17.2247735,13.165552 C17.2247735,18.9311666 21.9897822,23.662975 27.788597,23.662975 L27.788597,23.662975 C33.6211229,23.662975 38.3529313,18.9311666 38.3529313,13.165552 C38.3529313,7.3345584 33.6211229,2.60223923 27.788597,2.60223923 M27.788597,21.3297603 C23.5900365,21.3297603 21.7246906,17.8651817 21.7246906,13.165552 C21.7246906,8.43323283 23.5900365,4.96865421 27.788597,4.96865421 C31.9876683,4.96865421 33.8540358,8.43323283 33.8540358,13.165552 C33.8540358,17.8651817 31.9876683,21.3297603 27.788597,21.3297603" id="Fill-29" fill="#2CB2C1"></path>
                        <path d="M9.91514083,13.8563736 C13.3286421,13.6934367 15.1674277,11.0655056 15.200628,8.57088637 C15.2333175,6.0093558 13.3955534,3.28539918 10.0137202,3.12041924 C6.20488001,3.08824049 8.73372105,3.12041924 0,3.12041924 L0,23.1795276 L4.07086711,23.1795276 C4.07086711,16.3509927 4.07188866,11.2294639 4.07086711,4.53321955 L7.09158331,4.53321955 C9.58722405,4.53321955 11.1302717,6.56865311 11.0643819,8.57088637 C10.998492,10.3774933 9.88245131,12.1171888 7.48590068,12.2801256 L4.497874,12.2801256 L10.4075268,23.1795276 L15.2665178,23.1795276 L9.6858034,13.8563736 L9.91514083,13.8563736 Z" id="Fill-31" fill="#2CB2C1"></path>
                        <path d="M94.9933521,5.40342486 L104.78131,5.40342486 L104.78131,3.11362595 L94.3426263,3.11362595 C91.0220859,3.0288375 89.9142175,5.66034407 91.5405213,8.10388589 L101.727905,20.9237973 L90.8836662,20.9237973 L90.8836662,23.1798851 L103.121806,23.1798851 C106.143033,23.2089992 106.896935,20.9355451 105.556665,18.9067516 L94.9933521,5.40342486 Z" id="Fill-33" fill="#2CB2C1"></path>
                        <path d="M78.9898387,2.60223923 C73.1915347,2.60223923 68.4597263,7.3345584 68.4597263,13.165552 C68.4597263,18.9311666 73.1915347,23.662975 78.9898387,23.662975 L78.9898387,23.662975 C84.8218539,23.662975 89.5536623,18.9311666 89.5536623,13.165552 C89.5536623,7.3345584 84.8218539,2.60223923 78.9898387,2.60223923 M78.9898387,21.3297603 C74.7912782,21.3297603 72.9586218,17.8651817 72.9586218,13.165552 C72.9586218,8.43323283 74.7912782,4.96865421 78.9898387,4.96865421 C83.2221104,4.96865421 85.0557883,8.43323283 85.0557883,13.165552 C85.0557883,17.8651817 83.2221104,21.3297603 78.9898387,21.3297603" id="Fill-35" fill="#2CB2C1"></path>
                        <path d="M122.0851,18.9058322 L111.521277,5.40352701 L121.310257,5.40352701 L121.310257,3.11270656 L110.871573,3.11270656 C107.548989,3.02945043 106.442653,5.66044623 108.067935,8.10347727 L118.25634,20.9238994 L108.528142,20.9238994 L108.528142,23.1794765 L119.649731,23.1794765 C122.670958,23.2091014 123.42486,20.9351364 122.0851,18.9058322" id="Fill-37" fill="#2CB2C1"></path>
                        <path d="M60.0353298,4.98464143 L54.6701619,19.9140486 C52.2373464,14.8824159 49.7713305,9.88398363 47.3390257,4.88504054 C46.7388665,3.61832153 45.8061936,3.08456292 44.3724515,3.08609524 C43.2722448,3.08609524 42.106659,3.08456292 41.006963,3.08609524 L41.006963,23.1794254 L45.2387239,23.1794254 L45.2387239,8.88388854 L52.0381446,23.1794254 L55.9368809,23.1794254 L61.3020488,7.51756865 L61.3020488,23.1794254 L61.3679387,23.1794254 L65.5348312,23.1794254 L65.5348312,3.08456292 L62.9349926,3.08609524 C61.5349617,3.08609524 60.5690884,3.58563201 60.0353298,4.98464143" id="Fill-39" fill="#2CB2C1"></path>
                        <g id="编组" transform="translate(124.560310, 0.000000)">
                            <mask id="mask-2" fill="white">
                                <use xlink:href="#path-1"></use>
                            </mask>
                            <g id="Clip-42"></g>
                            <path d="M2.15801927,1.39747709 L2.15801927,2.54007806 L2.66368532,2.54007806 C2.89097966,2.54007806 3.06311042,2.49155455 3.17803453,2.39603985 C3.29244786,2.29848206 3.35169762,2.15597617 3.35169762,1.96341445 C3.35169762,1.76012648 3.28785089,1.61455595 3.16475441,1.52772441 C3.0401256,1.44140364 2.84347769,1.39747709 2.57736455,1.39747709 L2.15801927,1.39747709 Z M4.04737152,4.39980543 L3.42422749,4.39980543 L3.06311042,3.57235189 C2.97372501,3.37161779 2.87974263,3.21991798 2.78014174,3.11980631 C2.68309472,3.01918388 2.5783861,2.96912805 2.46805896,2.96912805 L2.15801927,2.96912805 L2.15801927,4.39980543 L1.64469161,4.39980543 L1.64469161,0.962297822 L2.63763586,0.962297822 C3.03348554,0.962297822 3.3460791,1.04402163 3.56877648,1.21002311 C3.79096308,1.37551382 3.90333331,1.60740512 3.90333331,1.90263237 C3.90333331,2.13963141 3.82824956,2.34189783 3.67706052,2.50687777 C3.52382838,2.67083615 3.31032494,2.78269561 3.03603941,2.83836996 C3.13206489,2.86493019 3.22757958,2.93082001 3.32411583,3.03655019 C3.4201413,3.14381268 3.51208059,3.29091553 3.601466,3.47785874 L4.04737152,4.39980543 Z M0.33813225,2.71016573 C0.33813225,3.37366089 0.570534324,3.93704438 1.03533847,4.39878389 C1.50116417,4.85950185 2.06250457,5.08935005 2.72038121,5.08935005 C3.3813225,5.08935005 3.94368444,4.85950185 4.40644549,4.39725157 C4.868185,3.93346896 5.09956553,3.37315011 5.09956553,2.71016573 C5.09956553,2.050246 4.86716345,1.48839483 4.4044024,1.02359068 C3.94164134,0.559297301 3.37979017,0.328427548 2.72038121,0.328427548 C2.06250457,0.328427548 1.50116417,0.559297301 1.03533847,1.02154758 C0.570534324,1.48481941 0.33813225,2.04667058 0.33813225,2.71016573 L0.33813225,2.71016573 Z M0,2.71016573 C0,1.95830671 0.263559276,1.31881793 0.792720923,0.790677828 C1.32341489,0.263559276 1.96698987,0 2.72344585,0 C3.4747941,0 4.11530443,0.263559276 4.64446608,0.790677828 C5.17260618,1.31881793 5.43974087,1.95830671 5.43974087,2.71016573 C5.43974087,3.46457862 5.17260618,4.10304586 4.64446608,4.63118596 C4.11530443,5.15779374 3.47326178,5.42135302 2.72038121,5.42135302 C1.96086058,5.42135302 1.31779638,5.15779374 0.789656281,4.63118596 C0.262537729,4.10304586 0,3.46457862 0,2.71016573 L0,2.71016573 Z" id="Fill-41" fill="#2CB2C1" mask="url(#mask-2)"></path>
                        </g>
                    </g>
                </g>
                <text id="罗马仕官网工作台" font-family="MiSans-Demibold, MiSans" font-size="18" font-weight="500" line-spacing="30" letter-spacing="2" fill="#FFFFFF">
                    <tspan x="3" y="49">罗马仕官网工作台</tspan>
                </text>
            </g>
        </g>
    </g>
</svg>